# xmcd
#
# Track frame offsets:
#	150
#	15369
#	32525
#	54923
#	74033
#	91073
#	114755
#	132117
#	151078
#	173310
#	188320
#	206267
#	225545
#	241691
#	263411
#	277218
#	294680
#
# Disc length: 4253 seconds
#
# Revision: 720936
# Processed by: cddbd v1.5.2PL0 Copyright (c) Steve Scherf et al.
# Submitted via: EZCDAudioConverter 5.0.3.2
#
DISCID=c6109b11
DTITLE=Various Artist - Three Wooden Crosses
DYEAR=2006
DGENRE=Country
TTITLE0=Randy Travis - Three Wooden Crosses
TTITLE1=Rascal Flatts - When The Sand Runs Out
TTITLE2=Tim Mcgraw - Live Like You Were Dying
TTITLE3=Faith Hill - There Will Come A Day
TTITLE4=Leann Rimes - I Need You
TTITLE5=Vince Gill - Go Rest High On That Mountain
TTITLE6=Jo Dee Messina - Because You Love Me
TTITLE7=Josh Turner - Long Black Train
TTITLE8=Lee Ann Womack - I Hope You Dance
TTITLE9=Craig Morgan - That's What I Love About Sunday
TTITLE10=Wynonna Judd - I Can Only Imagine
TTITLE11=Sawyer Brown - They Don't Understand
TTITLE12=Alison Krauss - A Living Prayer
TTITLE13=Steve Wariner - Holes In The Floor Of Heaven
TTITLE14=Amy Grant - Carry You
TTITLE15=John Michael Montgomery - The Little Girl
TTITLE16=The Judds - Love Can Build A Bridge
EXTD=
EXTT0=
EXTT1=
EXTT2=
EXTT3=
EXTT4=
EXTT5=
EXTT6=
EXTT7=
EXTT8=
EXTT9=
EXTT10=
EXTT11=
EXTT12=
EXTT13=
EXTT14=
EXTT15=
EXTT16=
PLAYORDER=
